<?xml version="1.0" encoding="iso-8859-1"?>
<!-- Uploaded to: SVG Repo, www.svgrepo.com, Generator: SVG Repo Mixer Tools -->
<svg version="1.1" id="Layer_1" xmlns="http://www.w3.org/2000/svg" xmlns:xlink="http://www.w3.org/1999/xlink"
	 height="20px" width="20px" viewBox="0 0 512 512" xml:space="preserve">
<rect x="13.128" y="13.128" style="fill:#61ACD2;" width="485.744" height="485.744"/>
<rect x="65.641" y="65.641" style="fill:#EFEFEF;" width="380.718" height="380.718"/>
<path style="fill:#F4A026;" d="M293.25,256.137l79.896-79.896c10.253-10.254,10.253-26.879,0-37.132
	c-10.254-10.254-26.88-10.254-37.133,0l-79.894,79.896l-79.896-79.896c-10.254-10.254-26.879-10.254-37.132,0
	s-10.254,26.879,0,37.132l79.896,79.896l-79.896,79.896c-10.254,10.254-10.254,26.879,0,37.132c5.127,5.127,11.846,7.69,18.566,7.69
	s13.439-2.564,18.566-7.69l79.896-79.896l79.894,79.896c5.127,5.127,11.847,7.69,18.567,7.69c6.72,0,13.439-2.564,18.567-7.69
	c10.253-10.254,10.253-26.879,0-37.132L293.25,256.137z"/>
<path d="M498.872,0H13.128C5.877,0,0,5.877,0,13.128v485.744C0,506.123,5.877,512,13.128,512h485.744
	c7.249,0,13.128-5.877,13.128-13.128V13.128C512,5.877,506.121,0,498.872,0z M485.744,485.744H26.256V26.256h459.487V485.744z"/>
<path d="M65.641,459.487h380.718c7.249,0,13.128-5.877,13.128-13.128V65.641c0-7.251-5.879-13.128-13.128-13.128H65.641
	c-7.251,0-13.128,5.877-13.128,13.128v380.718C52.513,453.61,58.39,459.487,65.641,459.487z M78.769,78.769h354.462v354.462H78.769
	V78.769z"/>
<path d="M382.43,129.825c-15.356-15.356-40.343-15.356-55.7,0l-70.611,70.613l-70.613-70.613c-15.356-15.355-40.342-15.355-55.699,0
	c-15.356,15.356-15.356,40.342,0,55.699l70.613,70.613l-70.613,70.611c-15.356,15.356-15.356,40.342,0,55.699
	c7.44,7.438,17.329,11.536,27.849,11.536c10.52,0,20.41-4.097,27.849-11.536l70.613-70.613l70.611,70.613
	c7.44,7.438,17.329,11.536,27.85,11.536c10.521,0,20.41-4.097,27.85-11.536c15.353-15.356,15.353-40.342,0-55.698l-70.613-70.613
	l70.613-70.613C397.783,170.168,397.783,145.181,382.43,129.825z M363.863,166.957l-79.896,79.896
	c-2.462,2.462-3.845,5.801-3.845,9.283c0,3.482,1.384,6.821,3.845,9.283l79.896,79.894c5.117,5.119,5.117,13.449,0,18.566
	c-2.48,2.48-5.776,3.845-9.283,3.845c-3.507,0-6.804-1.365-9.283-3.845l-79.894-79.894c-2.564-2.564-5.923-3.845-9.283-3.845
	c-3.359,0-6.72,1.283-9.283,3.845l-79.896,79.894c-2.48,2.48-5.776,3.845-9.283,3.845c-3.507,0-6.803-1.365-9.283-3.845
	c-5.119-5.119-5.119-13.447,0-18.566l79.896-79.896c5.127-5.127,5.127-13.439,0-18.567l-79.896-79.896
	c-5.119-5.119-5.119-13.447,0-18.566c5.117-5.119,13.447-5.119,18.566,0l79.896,79.896c2.463,2.462,5.801,3.845,9.283,3.845
	c3.482,0,6.82-1.384,9.283-3.845l79.894-79.894c5.117-5.12,13.449-5.119,18.567,0C368.981,153.509,368.981,161.839,363.863,166.957z
	"/>
</svg>
