<!DOCTYPE svg PUBLIC "-//W3C//DTD SVG 1.1//EN" "http://www.w3.org/Graphics/SVG/1.1/DTD/svg11.dtd">

<!-- Uploaded to: SVG Repo, www.svgrepo.com, Transformed by: SVG Repo Mixer Tools -->
<svg fill="#000000" width="800px" height="800px" viewBox="0 0 32 32"
     style="fill-rule:evenodd;clip-rule:evenodd;stroke-linejoin:round;stroke-miterlimit:2;" version="1.1"
     xml:space="preserve" xmlns="http://www.w3.org/2000/svg" xmlns:serif="http://www.serif.com/"
     xmlns:xlink="http://www.w3.org/1999/xlink">

<g id="SVGRepo_bgCarrier" stroke-width="0"/>

    <g id="SVGRepo_tracerCarrier" stroke-linecap="round" stroke-linejoin="round"/>

    <g id="SVGRepo_iconCarrier"> <g transform="matrix(1,0,0,1,-288,-384)"> <g
            transform="matrix(1.2381,0,0,1.04348,45.8571,383.783)"> <path
            d="M219,6.917C219,6.408 218.83,5.921 218.527,5.561C218.224,5.202 217.813,5 217.385,5C213.473,5 203.527,5 199.615,5C199.187,5 198.776,5.202 198.473,5.561C198.17,5.921 198,6.408 198,6.917C198,11.248 198,21.752 198,26.083C198,26.592 198.17,27.079 198.473,27.439C198.776,27.798 199.187,28 199.615,28C203.527,28 213.473,28 217.385,28C217.813,28 218.224,27.798 218.527,27.439C218.83,27.079 219,26.592 219,26.083C219,21.752 219,11.248 219,6.917Z"
            style="fill:#90e0ef;"/> </g>
        <path d="M310,388L298,388L298,387C298,386.448 297.552,386 297,386C296.448,386 296,386.448 296,387L296,388L293,388C292.204,388 291.441,388.316 290.879,388.879C290.316,389.441 290,390.204 290,391L290,411C290,411.796 290.316,412.559 290.879,413.121C291.441,413.684 292.204,414 293,414L315,414C315.796,414 316.559,413.684 317.121,413.121C317.684,412.559 318,411.796 318,411L318,391C318,390.204 317.684,389.441 317.121,388.879C316.559,388.316 315.796,388 315,388L312,388L312,387C312,386.448 311.552,386 311,386C310.448,386 310,386.448 310,387L310,388ZM316,396L316,411C316,411.265 315.895,411.52 315.707,411.707C315.52,411.895 315.265,412 315,412C315,412 293,412 293,412C292.735,412 292.48,411.895 292.293,411.707C292.105,411.52 292,411.265 292,411L292,396L316,396ZM307,406C307.552,406 308,406.448 308,407C308,407.552 307.552,408 307,408C306.448,408 306,407.552 306,407C306,406.448 306.448,406 307,406ZM301.707,407.707L307.707,401.707C308.097,401.317 308.097,400.683 307.707,400.293C307.317,399.903 306.683,399.903 306.293,400.293L300.293,406.293C299.903,406.683 299.903,407.317 300.293,407.707C300.683,408.097 301.317,408.097 301.707,407.707ZM301,400C301.552,400 302,400.448 302,401C302,401.552 301.552,402 301,402C300.448,402 300,401.552 300,401C300,400.448 300.448,400 301,400ZM312,390L312,391C312,391.552 311.552,392 311,392C310.448,392 310,391.552 310,391L310,390L298,390L298,391C298,391.552 297.552,392 297,392C296.448,392 296,391.552 296,391L296,390L293,390C292.735,390 292.48,390.105 292.293,390.293C292.105,390.48 292,390.735 292,391L292,394L316,394L316,391C316,390.735 315.895,390.48 315.707,390.293C315.52,390.105 315.265,390 315,390L312,390Z"
              style="fill:#1990a7;"/> </g> </g>

</svg>
