<!DOCTYPE svg PUBLIC "-//W3C//DTD SVG 1.1//EN" "http://www.w3.org/Graphics/SVG/1.1/DTD/svg11.dtd">

<!-- Uploaded to: SVG Repo, www.svgrepo.com, Transformed by: SVG Repo Mixer Tools -->
<svg width="24px" height="24px" viewBox="0 0 24 24" xmlns="http://www.w3.org/2000/svg"
     aria-labelledby="nightModeIconTitle" stroke="#90e0ef" stroke-width="1.4" stroke-linecap="round"
     stroke-linejoin="round" fill="none" color="#000000">

    <g id="SVGRepo_iconCarrier">
        <title id="nightModeIconTitle">Night Mode</title>
        <path style="opacity:0.5;" d="M12 19a7 7 0 1 0 0-14 7 7 0 0 0 0 14z"/>
        <path stroke="#F9EBB2" d="M15.899 12.899a4 4 0 0 1-4.797-4.797A4.002 4.002 0 0 0 12 16c1.9 0 3.49-1.325 3.899-3.101z"/>
        <path style="opacity:0.5;" d="M12 5V3M12 21v-2"/>
        <path style="opacity:0.5;" d="M5 12H2h3zM22 12h-3 3zM16.95 7.05L19.07 4.93 16.95 7.05zM4.929 19.071L7.05 16.95 4.93 19.07zM16.95 16.95l2.121 2.121-2.121-2.121zM4.929 4.929L7.05 7.05 4.93 4.93z"/>
    </g>

</svg>
