<!DOCTYPE svg PUBLIC "-//W3C//DTD SVG 1.1//EN" "http://www.w3.org/Graphics/SVG/1.1/DTD/svg11.dtd">

<!-- Uploaded to: SVG Repo, www.svgrepo.com, Transformed by: SVG Repo Mixer Tools -->
<svg height="800px" width="800px" version="1.1" id="Layer_1" xmlns="http://www.w3.org/2000/svg"
     xmlns:xlink="http://www.w3.org/1999/xlink" viewBox="0 0 512 512" xml:space="preserve" fill="#000000">

<g id="SVGRepo_bgCarrier" stroke-width="0"/>

    <g id="SVGRepo_tracerCarrier" stroke-linecap="round" stroke-linejoin="round"/>

    <g id="SVGRepo_iconCarrier"> <path style="fill:#14B005;"
                                       d="M251.821,18.286C156.035,18.286,78.106,96.214,78.106,192c0,100.58,124.652,301.714,173.714,301.714 S425.535,292.58,425.535,192C425.535,96.214,347.606,18.286,251.821,18.286z M251.821,274.286 c-55.455,0-100.571-45.116-100.571-100.571S196.365,73.143,251.821,73.143s100.571,45.116,100.571,100.571 S307.276,274.286,251.821,274.286z"/>
        <path style="fill:#FFFFFF;"
              d="M251.821,91.429c-45.371,0-82.286,36.915-82.286,82.286S206.45,256,251.821,256 s82.286-36.915,82.286-82.286S297.191,91.429,251.821,91.429z M251.763,232.915c-1.402,2.375-3.808,3.991-6.54,4.393 c-0.442,0.067-0.888,0.098-1.33,0.098c-2.281,0-4.496-0.853-6.196-2.42l-49.924-46.013l12.393-13.446l41.607,38.348l50.924-86.165 l15.741,9.304L251.763,232.915z"/>
        <g> <path style="fill:#4d4d4d;"
                  d="M251.821,0c-105.871,0-192,86.129-192,192c0,104.674,129.196,320,192,320s192-215.326,192-320 C443.821,86.129,357.691,0,251.821,0z M251.821,493.714C202.758,493.714,78.106,292.58,78.106,192 c0-95.786,77.929-173.714,173.714-173.714S425.535,96.214,425.535,192C425.535,292.58,300.883,493.714,251.821,493.714z"/>
            <path style="fill:#4d4d4d;"
                  d="M251.821,73.143c-55.455,0-100.571,45.116-100.571,100.571s45.116,100.571,100.571,100.571 s100.571-45.116,100.571-100.571S307.276,73.143,251.821,73.143z M251.821,256c-45.371,0-82.286-36.915-82.286-82.286 s36.915-82.286,82.286-82.286s82.286,36.915,82.286,82.286S297.191,256,251.821,256z"/>
            <path style="fill:#14B005;"
                  d="M241.772,213.875l-41.607-38.348l-12.393,13.446l49.924,46.013c1.701,1.567,3.915,2.42,6.196,2.42 c0.442,0,0.888-0.031,1.33-0.098c2.732-0.402,5.138-2.018,6.54-4.393l56.674-95.902l-15.741-9.304L241.772,213.875z"/> </g>
 </g>

</svg>
