<!DOCTYPE svg PUBLIC "-//W3C//DTD SVG 1.1//EN" "http://www.w3.org/Graphics/SVG/1.1/DTD/svg11.dtd">

<!-- Uploaded to: SVG Repo, www.svgrepo.com, Transformed by: SVG Repo Mixer Tools -->
<svg height="800px" width="800px" version="1.1" id="Layer_1" xmlns="http://www.w3.org/2000/svg"
     xmlns:xlink="http://www.w3.org/1999/xlink" viewBox="0 0 512 512" xml:space="preserve" fill="#000000"
     stroke="#000000">

<g id="SVGRepo_bgCarrier" stroke-width="0"/>

    <g id="SVGRepo_tracerCarrier" stroke-linecap="round" stroke-linejoin="round"/>

    <g id="SVGRepo_iconCarrier"> <path style="fill:#FFFFFF;"
                                       d="M229.552,91.429c-45.371,0-82.286,36.915-82.286,82.286S184.181,256,229.552,256 s82.286-36.915,82.286-82.286S274.922,91.429,229.552,91.429z M229.552,237.714c-35.29,0-64-28.71-64-64s28.71-64,64-64 s64,28.71,64,64S264.842,237.714,229.552,237.714z"/>
        <path style="fill:#5CB0FF;"
              d="M229.552,128c-25.205,0-45.714,20.509-45.714,45.714s20.509,45.714,45.714,45.714 s45.714-20.509,45.714-45.714S254.757,128,229.552,128z"/>
        <path style="fill:#D0E8FF;"
              d="M229.552,18.286C133.766,18.286,55.837,96.214,55.837,192c0,100.58,124.652,301.714,173.714,301.714 S403.266,292.58,403.266,192C403.266,96.214,325.337,18.286,229.552,18.286z M229.552,274.286 c-55.455,0-100.571-45.116-100.571-100.571S174.096,73.143,229.552,73.143s100.571,45.116,100.571,100.571 S285.007,274.286,229.552,274.286z"/>
        <g> <path style="fill:#4d4d4d;"
                  d="M229.552,0c-105.871,0-192,86.129-192,192c0,104.674,129.196,320,192,320s192-215.326,192-320 C421.552,86.129,335.422,0,229.552,0z M229.552,493.714C180.489,493.714,55.837,292.58,55.837,192 c0-95.786,77.929-173.714,173.714-173.714S403.266,96.214,403.266,192C403.266,292.58,278.614,493.714,229.552,493.714z"/>
            <path style="fill:#1C71DA;"
                  d="M229.552,73.143c-55.455,0-100.571,45.116-100.571,100.571s45.116,100.571,100.571,100.571 s100.571-45.116,100.571-100.571S285.007,73.143,229.552,73.143z M229.552,256c-45.371,0-82.286-36.915-82.286-82.286 s36.915-82.286,82.286-82.286s82.286,36.915,82.286,82.286S274.922,256,229.552,256z"/>
            <path style="fill:#1C71DA;"
                  d="M229.552,109.714c-35.29,0-64,28.71-64,64s28.71,64,64,64s64-28.71,64-64 S264.842,109.714,229.552,109.714z M229.552,219.429c-25.205,0-45.714-20.509-45.714-45.714S204.347,128,229.552,128 s45.714,20.509,45.714,45.714S254.757,219.429,229.552,219.429z"/> </g>
      </g>

</svg>
