<!DOCTYPE svg PUBLIC "-//W3C//DTD SVG 1.1//EN" "http://www.w3.org/Graphics/SVG/1.1/DTD/svg11.dtd">

<!-- Uploaded to: SVG Repo, www.svgrepo.com, Transformed by: SVG Repo Mixer Tools -->
<svg height="800px" width="800px" version="1.1" id="Layer_1" xmlns="http://www.w3.org/2000/svg"
     xmlns:xlink="http://www.w3.org/1999/xlink" viewBox="0 0 512 512" xml:space="preserve" fill="#000000">

<g id="SVGRepo_bgCarrier" stroke-width="0"/>

    <g id="SVGRepo_tracerCarrier" stroke-linecap="round" stroke-linejoin="round"/>

    <g id="SVGRepo_iconCarrier"> <path style="fill:#5CB0FF;"
                                       d="M338.584,116.364c0-53.895-43.85-97.745-97.745-97.745s-97.745,43.85-97.745,97.745 s43.85,97.745,97.745,97.745S338.584,170.259,338.584,116.364z M231.53,46.545c0-5.141,4.168-9.309,9.309-9.309 c43.632,0,79.127,35.496,79.127,79.127c0,5.141-4.168,9.309-9.309,9.309s-9.309-4.168-9.309-9.309 c0-33.364-27.146-60.509-60.509-60.509C235.698,55.855,231.53,51.686,231.53,46.545z"/>
        <g> <path style="fill:#FFFFFF;"
                  d="M245.493,437.689v27.766h-18.618v-27.766c-60.284,1.634-93.091,18.745-93.091,27.766 c0,9.477,36.145,27.927,102.4,27.927s102.4-18.45,102.4-27.927C338.584,456.434,305.777,439.323,245.493,437.689z"/>
            <path style="fill:#FFFFFF;"
                  d="M301.348,116.364c0,5.141,4.168,9.309,9.309,9.309s9.309-4.168,9.309-9.309 c0-43.632-35.496-79.127-79.127-79.127c-5.141,0-9.309,4.168-9.309,9.309s4.168,9.309,9.309,9.309 C274.202,55.855,301.348,83,301.348,116.364z"/> </g>
        <path style="fill:#1C71DA;"
              d="M245.493,419.064V232.491c61.997-2.47,111.709-53.534,111.709-116.127 C357.202,52.2,305.002,0,240.839,0S124.475,52.2,124.475,116.364c0,59.429,44.809,108.511,102.4,115.443v187.257 c-56.949,1.561-111.709,17.409-111.709,46.391c0,30.559,60.882,46.545,121.018,46.545s121.018-15.986,121.018-46.545 C357.202,436.473,302.442,420.625,245.493,419.064z M143.093,116.364c0-53.895,43.85-97.745,97.745-97.745 s97.745,43.85,97.745,97.745s-43.85,97.745-97.745,97.745S143.093,170.259,143.093,116.364z M236.184,493.382 c-66.255,0-102.4-18.45-102.4-27.927c0-9.021,32.807-26.132,93.091-27.766v27.766h18.618v-27.766 c60.284,1.634,93.091,18.745,93.091,27.766C338.584,474.932,302.439,493.382,236.184,493.382z"/>
</g>

</svg>
