<?xml version="1.0" encoding="iso-8859-1"?>
<!-- Uploaded to: SVG Repo, www.svgrepo.com, Generator: SVG Repo Mixer Tools -->
<svg height="800px" width="800px" version="1.1" id="Layer_1" xmlns="http://www.w3.org/2000/svg" xmlns:xlink="http://www.w3.org/1999/xlink" 
	 viewBox="0 0 512 512" xml:space="preserve">
<path style="fill:#1E0478;" d="M128.048,34.395C187.248,0.218,256.213-8.855,322.234,8.826
	C388.256,26.52,443.431,68.864,477.607,128.05c34.176,59.199,43.25,128.165,25.569,194.186
	c-17.694,66.021-60.039,121.196-119.224,155.373c-39.439,22.771-83.196,34.39-127.539,34.39c-22.225,0-44.596-2.918-66.647-8.821
	c-66.021-17.694-121.196-60.039-155.373-119.224C0.217,324.754-8.857,255.789,8.824,189.768
	C26.519,123.746,68.863,68.571,128.048,34.395z M477.434,315.334c15.842-59.146,7.715-120.93-22.904-173.96
	S374.478,50.424,315.333,34.568c-19.746-5.29-39.799-7.901-59.705-7.901c-39.719,0-78.919,10.406-114.254,30.805
	C88.356,88.091,50.422,137.524,34.566,196.669c-15.842,59.146-7.715,120.93,22.904,173.96s80.051,90.951,139.197,106.806
	c59.146,15.842,120.93,7.715,173.96-22.904C423.644,423.913,461.578,374.48,477.434,315.334z"/>
<path style="fill:#9B8CCC;" d="M454.53,141.374c30.619,53.03,38.747,114.814,22.904,173.96
	c-15.856,59.146-53.79,108.578-106.806,139.197c-53.03,30.619-114.814,38.747-173.96,22.904
	C137.522,461.58,88.089,423.659,57.47,370.629s-38.747-114.814-22.904-173.96c15.856-59.146,53.79-108.578,106.806-139.197
	c35.336-20.399,74.535-30.805,114.254-30.805c19.906,0,39.959,2.612,59.705,7.901C374.478,50.424,423.911,88.344,454.53,141.374z
	 M361.061,352.242V159.762c0-14.683-11.952-26.648-26.648-26.648h-33.124c-14.683,0-26.648,11.965-26.648,26.648v192.481
	c0,14.683,11.965,26.648,26.648,26.648h33.124C349.109,378.89,361.061,366.925,361.061,352.242z M237.36,352.242V159.762
	c0-14.683-11.965-26.648-26.648-26.648h-33.124c-14.697,0-26.648,11.965-26.648,26.648v192.481
	c0,14.683,11.952,26.648,26.648,26.648h33.124C225.395,378.89,237.36,366.925,237.36,352.242z"/>
<path style="fill:#1E0478;" d="M361.061,159.762v192.481c0,14.683-11.952,26.648-26.648,26.648h-33.124
	c-14.683,0-26.648-11.965-26.648-26.648V159.762c0-14.683,11.965-26.648,26.648-26.648h33.124
	C349.109,133.113,361.061,145.078,361.061,159.762z M334.426,352.229l-0.013-192.467h-33.124v192.481h33.124
	C334.426,352.242,334.426,352.229,334.426,352.229z"/>
<path style="fill:#94E7EF;" d="M334.413,159.762l0.013,192.467c0,0,0,0.013-0.013,0.013h-33.124V159.762L334.413,159.762
	L334.413,159.762z"/>
<path style="fill:#1E0478;" d="M237.36,159.762v192.481c0,14.683-11.965,26.648-26.648,26.648h-33.124
	c-14.697,0-26.648-11.965-26.648-26.648V159.762c0-14.683,11.952-26.648,26.648-26.648h33.124
	C225.395,133.113,237.36,145.078,237.36,159.762z M210.725,352.229l-0.013-192.467h-33.124v192.481h33.124L210.725,352.229z"/>
<polygon style="fill:#94E7EF;" points="210.711,159.762 210.725,352.229 210.711,352.242 177.588,352.242 177.588,159.762 "/>
</svg>