<?xml version="1.0" encoding="iso-8859-1"?>
<!-- Uploaded to: SVG Repo, www.svgrepo.com, Generator: SVG Repo Mixer Tools -->
<svg version="1.1" height="20px" width="20px" id="Layer_1" xmlns="http://www.w3.org/2000/svg" xmlns:xlink="http://www.w3.org/1999/xlink"
	 viewBox="0 0 512 512" xml:space="preserve">
<rect x="13.128" y="13.128" style="fill:#F4A026;" width="485.744" height="485.744"/>
<rect x="65.641" y="65.641" style="fill:#EFEFEF;" width="380.718" height="380.718"/>
<path style="fill:#F4A026;" d="M371.637,227.118h-86.755v-86.755c0-8.641-7.004-15.645-15.645-15.645h-27.788
	c-8.64,0-15.644,7.004-15.644,15.645v86.755h-85.442c-8.641,0-15.645,7.004-15.645,15.645v27.788c0,8.64,7.004,15.645,15.645,15.645
	h85.442v85.442c0,8.64,7.004,15.645,15.645,15.645h27.788c8.64,0,15.645-7.004,15.645-15.645v-85.444h86.755
	c8.64,0,15.645-7.004,15.645-15.645v-27.788C387.282,234.122,380.278,227.118,371.637,227.118z"/>
<path d="M498.872,0H13.128C5.877,0,0,5.879,0,13.128v485.744C0,506.121,5.877,512,13.128,512h485.744
	c7.251,0,13.128-5.879,13.128-13.128V13.128C512,5.879,506.123,0,498.872,0z M485.744,485.744H26.256V26.256h459.487V485.744z"/>
<path d="M65.641,459.487h380.718c7.251,0,13.128-5.879,13.128-13.128V65.641c0-7.249-5.877-13.128-13.128-13.128H65.641
	c-7.251,0-13.128,5.879-13.128,13.128v380.718C52.513,453.608,58.39,459.487,65.641,459.487z M78.769,78.769h354.462v354.462H78.769
	V78.769z"/>
<path d="M371.637,213.99H298.01v-73.627c0-15.865-12.908-28.773-28.773-28.773h-27.788c-15.864,0-28.772,12.908-28.772,28.773
	v73.627h-72.314c-15.865,0-28.773,12.908-28.773,28.773v27.787c0,15.865,12.908,28.773,28.773,28.773h72.314v72.314
	c0,15.865,12.908,28.773,28.773,28.773h27.788c15.865,0,28.773-12.908,28.773-28.773v-72.314h73.627
	c15.865,0,28.773-12.908,28.773-28.773v-27.787C400.41,226.897,387.503,213.99,371.637,213.99z M374.154,270.55
	c0,1.388-1.129,2.517-2.517,2.517h-86.755c-7.251,0-13.128,5.879-13.128,13.128v85.442c0,1.388-1.129,2.517-2.517,2.517h-27.788
	c-1.388,0-2.517-1.129-2.517-2.517v-85.442c0-7.249-5.878-13.128-13.128-13.128h-85.442c-1.388,0-2.517-1.129-2.517-2.517v-27.787
	c0-1.388,1.129-2.517,2.517-2.517h85.444c7.251,0,13.128-5.879,13.128-13.128v-86.755c0-1.388,1.129-2.517,2.517-2.517h27.788
	c1.388,0,2.517,1.129,2.517,2.517v86.755c0,7.249,5.878,13.128,13.128,13.128h86.755c1.388,0,2.517,1.129,2.517,2.517v27.787
	H374.154z"/>
</svg>
